Coordinates
version=1
nRows=10
nColumns=63
inDegrees=yes

Units are S.I. units (second, meters, Newtons, ...)
If the header above contains a line with 'inDegrees', this indicates whether rotational values are in degrees (yes) or radians (no).

endheader
time	pelvis_tilt	pelvis_list	pelvis_rotation	pelvis_tx	pelvis_ty	pelvis_tz	hip_flexion_r	hip_adduction_r	hip_rotation_r	knee_angle_r	knee_angle_r_beta	ankle_angle_r	subtalar_angle_r	mtp_angle_r	hip_flexion_l	hip_adduction_l	hip_rotation_l	knee_angle_l	knee_angle_l_beta	ankle_angle_l	subtalar_angle_l	mtp_angle_l	L5_S1_Flex_Ext	L5_S1_Lat_Bending	L5_S1_axial_rotation	L4_L5_Flex_Ext	L4_L5_Lat_Bending	L4_L5_axial_rotation	L3_L4_Flex_Ext	L3_L4_Lat_Bending	L3_L4_axial_rotation	L2_L3_Flex_Ext	L2_L3_Lat_Bending	L2_L3_axial_rotation	L1_L2_Flex_Ext	L1_L2_Lat_Bending	L1_L2_axial_rotation	L1_T12_Flex_Ext	L1_T12_Lat_Bending	L1_T12_axial_rotation	Abs_r3	Abs_r2	Abs_r1	Abs_t1	Abs_t2	neck_flexion	neck_bending	neck_rotation	arm_flex_r	arm_add_r	arm_rot_r	elbow_flex_r	pro_sup_r	wrist_flex_r	wrist_dev_r	arm_flex_l	arm_add_l	arm_rot_l	elbow_flex_l	pro_sup_l	wrist_flex_l	wrist_dev_l
      4.92452830	      3.39303929	     -5.70319195	     96.31384044	      0.17824105	      0.75514211	      0.79070670	      8.74300434	      0.18855716	      6.63436154	      3.50746951	      0.06121689	     26.18453229	    -10.20187666	      0.00000000	     10.97587125	     -0.38199019	     -0.85000283	      9.02053606	      0.15743805	     34.11891437	      7.62525137	      0.00000000	      0.64543360	      0.30388820	     -0.59771826	      1.19863474	      0.40417131	     -0.63507565	      1.06038287	      0.73887378	     -0.63507565	      0.73766606	      0.73887378	     -0.52300348	      0.59934964	      0.61968882	     -0.48564609	      0.36880076	      0.47072283	     -0.44828870	      4.61026768	      3.43764413	     -3.32432966	      0.00000000	      0.00000000	     28.43399886	      7.60940819	      6.37960557	      7.70359266	    -17.14979906	      7.31620186	     52.65029974	     86.13005444	    -12.80984177	      2.87436516	     -0.09032300	    -19.92392547	     -7.67600451	     56.63105611	     87.48817623	    -14.37375457	      9.27047309
      4.94339623	      3.31343376	     -5.84190250	     95.96140509	      0.17809224	      0.75484431	      0.78973357	      9.03585577	      0.12093738	      6.16268994	      3.97030909	      0.06929497	     26.86452221	     -9.34546161	      0.00000000	     10.81133948	     -0.25457942	     -0.21112347	      8.53944968	      0.14904151	     34.15605565	      6.75845873	      0.00000000	      0.64040633	      0.33484196	     -0.47360226	      1.18929859	      0.44533980	     -0.50320240	      1.05212355	      0.81413474	     -0.50320240	      0.73192039	      0.81413474	     -0.41440198	      0.59468131	      0.68280972	     -0.38480184	      0.36592817	      0.51867019	     -0.35520170	      4.57435834	      3.78779920	     -2.63403370	      0.00000000	      0.00000000	     28.43524086	      6.27258701	      3.33512975	      6.55059935	    -17.01770835	      5.67056852	     53.38656137	     86.39517424	    -12.39385303	      2.78205638	      1.23499954	    -20.14506824	     -5.41089052	     55.07984030	     87.18026601	    -13.57027758	      8.62713581
      4.96226415	      3.32247015	     -6.02211282	     95.76760966	      0.17790919	      0.75445369	      0.78971358	      9.45385910	      0.14434890	      6.11388154	      4.46433663	      0.07791737	     27.38708128	     -9.18265892	      0.00000000	     10.83933356	     -0.23640955	     -0.10813418	      8.24094253	      0.14383158	     34.18548481	      6.60189744	      0.00000000	      0.60936747	      0.38048415	     -0.51637280	      1.13165632	      0.50604392	     -0.54864610	      1.00112981	      0.92510917	     -0.54864610	      0.69644608	      0.92510917	     -0.45182620	      0.56585863	      0.77588329	     -0.41955290	      0.34819257	      0.58936995	     -0.38727960	      4.35265087	      4.30411284	     -2.87191058	      0.00000000	      0.00000000	     28.42331401	      7.03673581	      2.25760231	      6.46365580	    -16.78886339	      5.59708200	     53.47191435	     86.33824445	    -12.09808919	      2.84888828	      2.00546755	    -20.14612476	     -3.46050313	     54.02135341	     87.56112747	    -12.60091507	      7.98872170
      4.98113208	      3.14934008	     -6.19379803	     95.19073752	      0.17816528	      0.75413823	      0.79015359	      9.97600288	     -0.03983674	      4.74421133	      5.08702511	      0.08878534	     28.60068267	     -6.38628219	      0.00000000	     10.82268461	     -0.04223422	      0.29033811	      7.94504553	      0.13866720	     34.02358771	      5.40817994	      0.00000000	      0.57264679	      0.40323421	     -0.34894703	      1.06346235	      0.53630150	     -0.37075622	      0.94080141	      0.98042366	     -0.37075622	      0.65447801	      0.98042366	     -0.30532865	      0.53175981	      0.82227520	     -0.28351946	      0.32721037	      0.62460979	     -0.26171027	      4.09035874	      4.56146604	     -1.94073868	      0.00000000	      0.00000000	     28.40574748	      6.27087645	     -1.04011920	      5.93418067	    -16.13500329	      3.73033848	     53.68417038	     86.12869856	    -10.95960326	      3.37378893	      3.69136252	    -20.10281257	      0.97002199	     52.22236672	     87.76246902	    -12.30056512	      5.52671622
      5.00000000	      3.05493678	     -6.36068155	     94.64591199	      0.17858645	      0.75374213	      0.79096254	     10.49061665	     -0.08256288	      4.38628476	      5.63272850	      0.09830966	     29.35031669	     -5.07869242	      0.00000000	     10.87029040	      0.01958380	      0.06173683	      7.74901501	      0.13524583	     33.97369318	      4.91167277	      0.00000000	      0.53727945	      0.44355695	     -0.32639076	      0.99778166	      0.58993075	     -0.34679019	      0.88269641	      1.07846437	     -0.34679019	      0.61405668	      1.07846437	     -0.28559192	      0.49891770	      0.90450134	     -0.26519250	      0.30700148	      0.68706972	     -0.24479307	      3.83773338	      5.01760495	     -1.81528752	      0.00000000	      0.00000000	     28.37889335	      7.25365976	     -2.08892585	      6.41974572	    -15.50888372	      3.45769965	     53.25477005	     85.46613827	    -10.34411266	      4.13884633	      4.68878957	    -19.81995383	      5.01622775	     50.92235120	     88.34511962	    -13.01983131	      2.65098271
      5.01886792	      2.89097099	     -6.56492604	     94.02249736	      0.17921045	      0.75322215	      0.79178004	     11.04963202	     -0.19076504	      3.92288462	      6.18678987	      0.10797985	     30.10963539	     -3.43349766	      0.00000000	     10.95838540	      0.13599976	     -0.26878306	      7.59259086	      0.13251571	     33.90849555	      4.38609280	      0.00000000	      0.52433905	      0.47319336	     -0.27198686	      0.97375005	      0.62934717	     -0.28898604	      0.86143662	      1.15052234	     -0.28898604	      0.59926710	      1.15052234	     -0.23798850	      0.48690124	      0.96493590	     -0.22098932	      0.29960733	      0.73297652	     -0.20399014	      3.74530138	      5.35285795	     -1.51270931	      0.00000000	      0.00000000	     28.35721114	      7.88190064	     -3.59679010	      7.05950629	    -14.78184024	      3.09591560	     52.71910206	     84.81802826	     -9.83895822	      5.48016191	      5.75434351	    -19.49372567	      9.90462058	     49.79443284	     88.73683205	    -15.28267434	      0.02812681
      5.03773585	      2.67224940	     -6.82863870	     93.31471165	      0.17997170	      0.75262231	      0.79219908	     11.61633416	     -0.32365228	      3.77808082	      6.68513266	      0.11667758	     30.70212125	     -2.03166139	      0.00000000	     11.05071780	      0.29246169	     -0.68224471	      7.35166479	      0.12831076	     33.78486341	      3.81238512	      0.00000000	      0.54405574	      0.49790689	     -0.18017454	      1.01036592	      0.66221617	     -0.19143545	      0.89382918	      1.21061082	     -0.19143545	      0.62180131	      1.21061082	     -0.15765272	      0.50521016	      1.01533174	     -0.14639181	      0.31087345	      0.77125778	     -0.13513091	      3.88613576	      5.63242236	     -1.00207674	      0.00000000	      0.00000000	     28.35302102	      8.14232197	     -5.14399838	      7.62813770	    -14.05749642	      2.76016393	     52.26251039	     84.10388002	     -9.74754249	      7.37126454	      6.77936695	    -18.93220099	     14.63450386	     48.79727924	     88.93999398	    -17.58633466	     -1.97634759
      5.05660377	      2.59534272	     -7.20224304	     92.98227663	      0.18029831	      0.75201157	      0.79192870	     12.06883213	     -0.33365721	      4.09493386	      6.84524417	      0.11947205	     30.83436642	     -1.72839666	      0.00000000	     11.26646650	      0.35129455	     -0.90848603	      7.06770799	      0.12335477	     33.67888326	      3.61943705	      0.00000000	      0.61125805	      0.54177551	     -0.24904675	      1.13516732	      0.72056142	     -0.26461217	      1.00423585	      1.31727297	     -0.26461217	      0.69860682	      1.31727297	     -0.21791591	      0.56761422	      1.10478861	     -0.20235049	      0.34927285	      0.83921026	     -0.18678506	      4.36615510	      6.12867288	     -1.38512332	      0.00000000	      0.00000000	     28.36374632	      8.47029580	     -5.75022021	      8.49565155	    -13.21897399	      3.19954850	     51.19744603	     84.01215308	     -9.79261881	      8.50989732	      6.88857825	    -17.78602931	     16.45985144	     48.43799602	     89.12351685	    -17.48226301	     -2.06569163
      5.07547170	      2.26796724	     -7.54464430	     92.08547908	      0.18094033	      0.75165861	      0.79105802	     12.64711673	     -0.54758132	      4.04459789	      7.34521766	      0.12819823	     31.05482852	     -0.37887212	      0.00000000	     11.26672501	      0.64030032	     -0.84036751	      6.48975775	      0.11326764	     33.27887644	      2.34446439	      0.00000000	      0.68689980	      0.55434525	     -0.04991488	      1.27564162	      0.73727918	     -0.05303456	      1.12850768	      1.34783504	     -0.05303456	      0.78505778	      1.34783504	     -0.04367552	      0.63785516	      1.13042084	     -0.04055584	      0.39249455	      0.85868079	     -0.03743616	      4.90645659	      6.27086435	     -0.27761161	      0.00000000	      0.00000000	     28.39686536	      6.48600766	     -9.44226647	      8.37091444	    -12.93420639	      3.39071957	     51.34055457	     83.69331149	    -10.29600282	     11.00540474	      8.51905799	    -17.25660162	     22.79433208	     46.95376118	     89.02129013	    -20.92790047	     -3.53593621
      5.09433962	      2.12725720	     -8.05856853	     91.66407378	      0.18125072	      0.75128685	      0.78932709	     13.09011698	     -0.61042699	      4.41863758	      7.30104760	      0.12742732	     30.85490974	     -0.08635740	      0.00000000	     11.49180868	      0.74578419	     -1.00960234	      5.98570044	      0.10447018	     32.97228467	      2.19499200	      0.00000000	      0.79657099	      0.59946388	     -0.18409054	      1.47931199	      0.79728696	     -0.19559620	      1.30868649	      1.45753648	     -0.19559620	      0.91040099	      1.45753648	     -0.16107922	      0.73969583	      1.22242674	     -0.14957356	      0.45516067	      0.92856955	     -0.13806790	      5.68982696	      6.78125531	     -1.02385635	      0.00000000	      0.00000000	     28.42862538	      6.19222485	     -9.81124604	      8.89520666	    -12.06455340	      4.53259075	     50.47198307	     83.94815948	    -10.18455134	     11.89138397	      8.37807536	    -16.16810378	     24.19440457	     46.38135946	     89.06418695	    -20.52772394	     -3.35910975
